# xmcd
#
# Track frame offsets:
#	150
#	12084
#	26361
#	38362
#	52136
#	66940
#	79928
#	93966
#	106247
#	118449
#	130405
#	142517
#	155529
#	167700
#	180618
#	194593
#	207757
#	220377
#	234646
#	246649
#	259255
#	271851
#	285703
#	300194
#	312473
#
# Disc length: 4344 seconds
#
# Revision: 0
# Processed by: cddbd v1.5PL3 Copyright (c) Steve Scherf et al.
# Submitted via: dBpowerAMP V4.0
#
DISCID=6710f619
DTITLE=Sonora Matancera - Guarachas
DYEAR=1900
DGENRE=Latin
TTITLE0=Ay Cosita linda ( carlos Argentino )
TTITLE1=Yo No soy guapo ( Vicentico V. )
TTITLE2=La Maquina Del Movimiento ( Nelson pinedo )
TTITLE3=Momposina (Nelson pinedo)
TTITLE4=El Sofa ( Daniel Santos)
TTITLE5=Cerca Del Rio Grande (Carlos Argentino)
TTITLE6=Pa La Paloma (Celia Cruz)
TTITLE7=A Bailar (Bienvenido Granda)
TTITLE8=Quien Sera ( Nelson Pinedo)
TTITLE9=El Negrito Del Batey (Alberto Beltran)
TTITLE10=Maringa ( Leo Marini)
TTITLE11=Oye Mina ( Celio Gonzales)
TTITLE12=Burundanga ( Celia Cruz)
TTITLE13=Me Voy pa'La habana (Nelson Pinedo)
TTITLE14=El Mambo Es Universal (Daniel Santos)
TTITLE15=P. De Parada (Bienvenido Granda)
TTITLE16=Caramelo (Celia Cruz)
TTITLE17=El Corneta ( Daniel Santos)
TTITLE18=Ave Maria lola (Carlos Argentino)
TTITLE19=Se Formo El Rumbon (Miguel Valdez)
TTITLE20=En El Mar (Carlos Argentino)
TTITLE21=Humo ( Celio Gonzales)
TTITLE22=El Mueco De La Ciudad (Nelson Pinedo)
TTITLE23=Besame Morenita (Nelson Pinedo)
TTITLE24=En El Cahumbamba (Carlos Argentino)
EXTD=
EXTT0=
EXTT1=
EXTT2=
EXTT3=
EXTT4=
EXTT5=
EXTT6=
EXTT7=
EXTT8=
EXTT9=
EXTT10=
EXTT11=
EXTT12=
EXTT13=
EXTT14=
EXTT15=
EXTT16=
EXTT17=
EXTT18=
EXTT19=
EXTT20=
EXTT21=
EXTT22=
EXTT23=
EXTT24=
PLAYORDER=
